<?xml version="1.0" encoding="utf-8"?>
<!-- Generator: Adobe Illustrator 19.0.0, SVG Export Plug-In . SVG Version: 6.00 Build 0)  -->
<svg version="1.1" id="Layer_1" xmlns="http://www.w3.org/2000/svg" xmlns:xlink="http://www.w3.org/1999/xlink" x="0px" y="0px"
	 viewBox="0 0 1498.3 314.5" style="enable-background:new 0 0 1498.3 314.5;" xml:space="preserve">
<style type="text/css">
	.st0{fill:none;stroke:#FFFFFF;stroke-width:4.208;}
	.st1{fill:none;stroke:#FFFFFF;stroke-width:2.969;}
	.st2{fill:none;stroke:#FFFFFF;stroke-width:1.485;}
	.st3{fill:#FFFFFF;}
</style>
<g>
	<path d="M167.6,194c-0.3,0-0.5-0.4-0.5-0.8v-6.9c0-0.4,0.2-0.8,0.5-0.8h10.8c0.3,0,0.5,0.4,0.5,0.8v6.9c0,0.4-0.2,0.8-0.5,0.8
		H167.6z"/>
	<path d="M170,195.9c-0.2,0-0.4-0.1-0.4-0.1v-1.1c0-0.1,0.2-0.1,0.4-0.1h8.6c0.2,0,0.4,0.1,0.4,0.1v1.1c0,0.1-0.2,0.1-0.4,0.1H170z"
		/>
	<path d="M185.5,166.2c-0.3,0-0.5-0.4-0.5-0.8v-6.9c0-0.4,0.2-0.8,0.5-0.8h10.8c0.3,0,0.5,0.4,0.5,0.8v6.9c0,0.4-0.2,0.8-0.5,0.8
		H185.5z"/>
	<path d="M187.9,168c-0.2,0-0.4-0.1-0.4-0.1v-1.1c0-0.1,0.2-0.1,0.4-0.1h8.6c0.2,0,0.4,0.1,0.4,0.1v1.1c0,0.1-0.2,0.1-0.4,0.1H187.9
		z"/>
	<path d="M222.3,155.4c-0.3,0-0.5-0.4-0.5-0.8v-6.9c0-0.4,0.2-0.8,0.5-0.8h10.8c0.3,0,0.5,0.4,0.5,0.8v6.9c0,0.4-0.2,0.8-0.5,0.8
		H222.3z"/>
	<path d="M223.5,156.2c-0.2,0-0.4-0.1-0.4-0.1V155c0-0.1,0.2-0.1,0.4-0.1h8.6c0.2,0,0.4,0.1,0.4,0.1v1.1c0,0.1-0.2,0.1-0.4,0.1
		H223.5z"/>
	<path d="M169.4,227.7c-0.2,0-0.4-0.3-0.4-0.7v-6.2c0-0.4,0.2-0.7,0.4-0.7h9.8c0.2,0,0.4,0.3,0.4,0.7v6.2c0,0.4-0.2,0.7-0.4,0.7
		H169.4z"/>
	<path d="M171.5,229.4c-0.2,0-0.4-0.1-0.4-0.1v-1c0-0.1,0.2-0.1,0.4-0.1h7.8c0.2,0,0.4,0.1,0.4,0.1v1c0,0.1-0.2,0.1-0.4,0.1H171.5z"
		/>
	<path d="M185.2,253.2c-0.2,0-0.4-0.3-0.4-0.7v-6.2c0-0.4,0.2-0.7,0.4-0.7h9.8c0.2,0,0.4,0.3,0.4,0.7v6.2c0,0.4-0.2,0.7-0.4,0.7
		H185.2z"/>
	<path d="M187.3,254.9c-0.2,0-0.4-0.1-0.4-0.1v-1c0-0.1,0.2-0.1,0.4-0.1h7.8c0.2,0,0.4,0.1,0.4,0.1v1c0,0.1-0.2,0.1-0.4,0.1H187.3z"
		/>
	<polyline class="st0" points="205.1,279.3 227.3,209.5 252.8,279.2 	"/>
	<path class="st1" d="M217.6,245.5h21.2 M217.6,241.8h21.2"/>
	<path class="st2" d="M228.5,258.9c-28.6,0-51.8-23.2-51.8-51.8c0-28.6,23.2-51.8,51.8-51.8c28.6,0,51.8,23.2,51.8,51.8
		C280.3,235.7,257.1,258.9,228.5,258.9z M228.5,151.9c-30.5,0-55.2,24.7-55.2,55.2c0,30.5,24.7,55.2,55.2,55.2
		c30.5,0,55.2-24.7,55.2-55.2C283.6,176.6,258.9,151.9,228.5,151.9z"/>
	<circle class="st1" cx="228.5" cy="207.1" r="51.8"/>
	<path class="st3" d="M261.3,166.2h10.8c0.3,0,0.5-0.4,0.5-0.8v-6.9c0-0.4-0.2-0.8-0.5-0.8h-10.8c-0.3,0-0.5,0.4-0.5,0.8v6.9
		C260.8,165.8,261,166.2,261.3,166.2"/>
	<path class="st3" d="M270.1,167.9v-1.1c0-0.1-0.2-0.1-0.4-0.1h-8.6c-0.2,0-0.4,0.1-0.4,0.1v1.1c0,0.1,0.2,0.1,0.4,0.1h8.6
		C269.9,168,270.1,168,270.1,167.9"/>
	<path class="st3" d="M290.4,185.6h-10.8c-0.3,0-0.5,0.4-0.5,0.8v6.9c0,0.4,0.2,0.8,0.5,0.8h10.8c0.3,0,0.5-0.4,0.5-0.8v-6.9
		C290.9,185.9,290.7,185.6,290.4,185.6"/>
	<path class="st3" d="M288.1,195.9c0.2,0,0.4-0.1,0.4-0.1v-1.1c0-0.1-0.2-0.1-0.4-0.1h-8.6c-0.2,0-0.4,0.1-0.4,0.1v1.1
		c0,0.1,0.2,0.1,0.4,0.1H288.1z"/>
	<path class="st3" d="M290.3,220h-10.8c-0.3,0-0.5,0.4-0.5,0.8v6.9c0,0.4,0.2,0.8,0.5,0.8h10.8c0.3,0,0.5-0.4,0.5-0.8v-6.9
		C290.8,220.4,290.6,220,290.3,220"/>
	<path class="st3" d="M279.4,229c-0.2,0-0.4,0.1-0.4,0.1v1.1c0,0.1,0.2,0.1,0.4,0.1h8.6c0.2,0,0.4-0.1,0.4-0.1v-1.1
		c0-0.1-0.2-0.1-0.4-0.1H279.4z"/>
	<path class="st3" d="M274,245.5h-10.8c-0.3,0-0.5,0.4-0.5,0.8v6.9c0,0.4,0.2,0.8,0.5,0.8H274c0.3,0,0.5-0.4,0.5-0.8v-6.9
		C274.5,245.8,274.3,245.5,274,245.5"/>
	<path class="st3" d="M263.1,254.5c-0.2,0-0.4,0.1-0.4,0.1v1.1c0,0.1,0.2,0.1,0.4,0.1h8.6c0.2,0,0.4-0.1,0.4-0.1v-1.1
		c0-0.1-0.2-0.1-0.4-0.1H263.1z"/>
	<path class="st3" d="M178.9,193.2v-6.9c0-0.4-0.2-0.8-0.5-0.8h-10.8c-0.3,0-0.5,0.4-0.5,0.8v6.9c0,0.4,0.2,0.8,0.5,0.8h10.8
		C178.7,194,178.9,193.7,178.9,193.2"/>
	<path class="st3" d="M170,194.6c-0.2,0-0.4,0.1-0.4,0.1v1.1c0,0.1,0.2,0.1,0.4,0.1h8.6c0.2,0,0.4-0.1,0.4-0.1v-1.1
		c0-0.1-0.2-0.1-0.4-0.1H170z"/>
	<path class="st3" d="M196.3,157.7h-10.8c-0.3,0-0.5,0.4-0.5,0.8v6.9c0,0.4,0.2,0.8,0.5,0.8h10.8c0.3,0,0.5-0.4,0.5-0.8v-6.9
		C196.8,158,196.6,157.7,196.3,157.7"/>
	<path class="st3" d="M187.9,166.7c-0.2,0-0.4,0.1-0.4,0.1v1.1c0,0.1,0.2,0.1,0.4,0.1h8.6c0.2,0,0.4-0.1,0.4-0.1v-1.1
		c0-0.1-0.2-0.1-0.4-0.1H187.9z"/>
	<path class="st3" d="M233.1,146.9h-10.8c-0.3,0-0.5,0.4-0.5,0.8v6.9c0,0.4,0.2,0.8,0.5,0.8h10.8c0.3,0,0.5-0.4,0.5-0.8v-6.9
		C233.6,147.3,233.4,146.9,233.1,146.9"/>
	<path class="st3" d="M179.6,226.9v-6.2c0-0.4-0.2-0.7-0.4-0.7h-9.8c-0.2,0-0.4,0.3-0.4,0.7v6.2c0,0.4,0.2,0.7,0.4,0.7h9.8
		C179.4,227.7,179.6,227.3,179.6,226.9"/>
	<path class="st3" d="M171.5,228.2c-0.2,0-0.4,0.1-0.4,0.1v1c0,0.1,0.2,0.1,0.4,0.1h7.8c0.2,0,0.4-0.1,0.4-0.1v-1
		c0-0.1-0.2-0.1-0.4-0.1H171.5z"/>
	<path class="st3" d="M195.5,252.4v-6.2c0-0.4-0.2-0.7-0.4-0.7h-9.8c-0.2,0-0.4,0.3-0.4,0.7v6.2c0,0.4,0.2,0.7,0.4,0.7h9.8
		C195.3,253.2,195.5,252.8,195.5,252.4"/>
	<path class="st3" d="M187.3,253.7c-0.2,0-0.4,0.1-0.4,0.1v1c0,0.1,0.2,0.1,0.4,0.1h7.8c0.2,0,0.4-0.1,0.4-0.1v-1
		c0-0.1-0.2-0.1-0.4-0.1H187.3z"/>
	<path class="st3" d="M227.4,201.7c-2.6,0-4.7,2.1-4.7,4.7c0,2.6,2.1,4.7,4.7,4.7c2.6,0,4.7-2.1,4.7-4.7
		C232.1,203.8,230,201.7,227.4,201.7"/>
	<path class="st1" d="M217.6,245.5h21.2 M217.6,241.8h21.2"/>
	<path class="st3" d="M1490.1,269v11h-5.5v3.8h-1.8l0-7h-5.3v-3.6h-3.8v3.6h-3.7l-11.2-5.8l-10.8,5.6V173.2h-6.7l0-64.7
		c0,0-13.9,27.6-23.3,38.1c-14.1,15.7-29.5,15.4-29.5,15.4l0.1,11.2h-4.7v51.5h-2.5v-39h-2.5v-8.4h-5.5v-6.1h-20v14.5h-2.9v45.2l0,0
		h-6.6v4.2c-6.6,3.4-15.4,5.6-27.5,5.6c-11,0-19.6-3-25.5-5.9v-17h-5.6v-13.7h-17v7.9c-7,6.3-17,10.8-32.1,10.8
		c-15.8,0-26.7-8-31.5-12.3v-6.4h-17v70.2h-5.7v-3.4h-6.6v6.2h-2.1v6.8h-1v-2.5h-3.1l-5-4.1l-2.3,1.8l-5.6-6.6l-6.1,7.1h-3.7v2.5
		l-6.4,1.7v-26.2h1.1v-13.7h-2.7c-0.1-1.3-0.8-2.3-1.6-2.3c-0.8,0-1.5,1-1.6,2.3h-2.8c-0.1-1.3-0.8-2.3-1.6-2.3
		c-0.8,0-1.5,1-1.6,2.3h-13c-0.1-1.3-0.8-2.3-1.6-2.3c-0.8,0-1.5,1-1.6,2.3h0c-0.1-1.3-0.8-2.3-1.6-2.3c-0.8,0-1.5,1-1.6,2.3H1080
		c-0.1-1.3-0.8-2.3-1.6-2.3c-0.8,0-1.5,1-1.6,2.3h-10.1v-10h-18.1c-0.5-1-0.8-1.6-1.3-2.7c-0.1-0.1-0.4-0.2-1-0.3
		c0.7-0.7,1.2-1.7,1.2-3c0-2-1.3-3.7-2.9-3.7c-1.6,0-2.9,1.7-2.9,3.7l0,0.1h-0.7v-2.7h-6.9c-0.2-0.6-0.3-1.3-0.5-2.1
		c-0.1-0.4-1-0.7-2.1-0.8v-0.3c0-0.9-0.7-1.7-1.6-2v-1.4c0-0.3-0.2-0.6-0.5-0.8c0.2-0.5,0.3-1.1,0.4-1.8c0.6,0.2,1.3,0.4,2,0.5
		c2.2,0.3,4,0,4.1-0.6c0.1-0.7-1.6-1.5-3.7-1.8c-0.9-0.1-1.8-0.2-2.5-0.1c-0.2-1.3-0.8-2.2-1.4-2.2c-0.6,0-1.1,0.9-1.3,2.1
		c-0.7-0.1-1.6,0-2.5,0.1c-2.2,0.3-3.8,1.2-3.7,1.8c0.1,0.7,1.9,0.9,4.1,0.6c0.8-0.1,1.5-0.3,2-0.5c0.1,0.6,0.2,1.2,0.4,1.6
		c-0.4,0.2-0.7,0.5-0.7,1v1.4c-1,0.3-1.6,1.1-1.6,2v0.4c-1.1,0.1-2,0.4-2.1,0.8c-0.2,0.8-0.4,1.5-0.5,2.1h-7.4v2.7h-1.1
		c-0.3,0-0.5,0-0.8,0.1c0-0.1,0-0.2,0-0.3c0-2.1-1.3-3.8-2.9-3.8c-1.6,0-2.9,1.7-2.9,3.8c0,1.3,0.5,2.4,1.2,3
		c-1,0.1-1.6,0.2-1.7,0.4c-0.7,1.1-1.1,1.7-1.7,2.7h-14.3v7.1h-0.7v2.8h-12.3c-0.1-1.3-0.8-2.3-1.6-2.3c-0.8,0-1.5,1-1.6,2.3h-30.3
		c-0.1-1.3-0.8-2.3-1.6-2.3c-0.8,0-1.5,1-1.6,2.3h0c-0.1-1.3-0.8-2.3-1.6-2.3c-0.8,0-1.5,1-1.6,2.3h-13c-0.1-1.3-0.8-2.3-1.6-2.3
		c-0.8,0-1.5,1-1.6,2.3h-2.8c-0.1-1.3-0.8-2.3-1.6-2.3c-0.8,0-1.5,1-1.6,2.3h-1.1v13.7h0.7v23.3l-3.4,1v-1.9h-5.3v3.5l-1.3,0v-6.6
		h-3.7v-3.6h-2.7v3.6h-2.7l-7.9-5.8l-7.9,5.8h-7.5v5l-7-3.3v-52.8h-0.7c-0.1-1-0.4-2.1-0.6-3.6c-0.1-0.7-0.3-1.3-0.6-1.9v-3.7h-1.4
		c-0.5-2.8-2.2-5.1-4.6-6.6c-0.3-1.6-0.5-2.6-0.9-4.4c-0.1-0.5-1.1-0.8-2.3-0.8v-0.2c0-0.7-0.4-1.3-1-1.5v-1.1
		c0-0.5-0.4-0.8-0.8-0.8h-0.5c-0.4,0-0.8,0.4-0.8,0.8v1.1c-0.6,0.2-1,0.8-1,1.5v0.3c-1.2,0-2.2,0.4-2.3,0.9
		c-0.4,1.8-0.6,2.8-0.9,4.4c-2.4,1.4-4.1,3.8-4.6,6.5h-1.4v3.8c-0.3,0.6-0.5,1.2-0.6,1.9c-0.3,1.4-0.5,2.5-0.6,3.5h-5.7v-61.3h2.4
		v-3h-2.5c0.5-0.5,0.8-1.1,0.7-1.8c-0.3-1.9-0.5-2.8-0.8-4.7c-0.2-1.3-1.3-2.2-2.6-2.4v-0.8c0-1-0.5-1.9-1.2-1.9h-0.8
		c-0.7,0-1.2,0.8-1.2,1.9v0.8c-1.3,0.2-2.3,1.1-2.6,2.4c-0.3,1.9-0.5,2.8-0.8,4.7c-0.1,0.7,0.1,1.3,0.7,1.8h-2.5v3h2.4v61.3h-6.9
		V199h-2.6v-4.4c0-2.2-1.1-4.1-2.7-5.4v-3.1c0,0-0.6,0-1.7,0c0-2.8-0.9-4.5-1.9-6v-4.2h-2.6c-0.3-6.4-5.1-11.9-12-14.5
		c-0.3-1.3-0.6-2.4-0.9-3.4c-0.3-1.1-0.5-2.1-0.9-3.6c0-0.1-0.1-0.2-0.2-0.3l-0.1-0.1c-0.1-0.1-0.3-0.2-0.5-0.3l0,0
		c-0.2-0.1-0.5-0.2-0.7-0.2l-0.1,0c-0.3-0.1-0.6-0.1-1-0.1h0v-0.4c0-1.2-0.9-2.2-2.1-2.6v-1.9c0-0.8-0.8-1.4-1.7-1.4h-1.1
		c-0.9,0-1.7,0.6-1.7,1.4v1.9c-1.3,0.4-2.1,1.4-2.1,2.6v0.5c-0.4,0-0.7,0.1-1,0.2l-0.1,0c-0.3,0.1-0.6,0.1-0.8,0.2l0,0
		c-0.2,0.1-0.4,0.2-0.5,0.3l-0.1,0.1c-0.1,0.1-0.2,0.2-0.2,0.3c-0.7,2.7-1,4.2-1.7,6.8l0,0.2c-6.9,2.6-11.8,8.1-12,14.5h-2.6v4.3
		c-0.4,0.5-1.8,2.8-1.9,5.9h-1.6v3.1c-1.7,1.3-2.7,3.3-2.7,5.4v4.4H754v26.7h-9.5v-61.3h2.4v-3h-2.5c0.5-0.5,0.8-1.1,0.7-1.8
		c-0.3-1.9-0.5-2.8-0.8-4.7c-0.2-1.3-1.3-2.2-2.6-2.4v-0.8c0-1-0.5-1.9-1.2-1.9h-0.8c-0.7,0-1.2,0.8-1.2,1.9v0.8
		c-1.3,0.2-2.3,1.1-2.6,2.4c-0.3,1.9-0.5,2.8-0.8,4.7c-0.1,0.7,0.2,1.3,0.7,1.8h-2.5v3h2.4v61.3h-4.6c-0.1-1-0.4-2.1-0.6-3.6
		c-0.1-0.7-0.3-1.3-0.6-1.9v-3.7h-1.4c-0.5-2.8-2.2-5.1-4.6-6.6c-0.3-1.6-0.5-2.6-0.9-4.4c-0.1-0.5-1.1-0.8-2.3-0.8v-0.2
		c0-0.7-0.4-1.3-1-1.5v-1.1c0-0.5-0.4-0.8-0.8-0.8h-0.5c-0.5,0-0.8,0.4-0.8,0.8v1.1c-0.6,0.2-1,0.8-1,1.5v0.3
		c-1.2,0-2.2,0.4-2.3,0.9c-0.4,1.8-0.6,2.8-0.9,4.4c-2.4,1.4-4.1,3.8-4.6,6.5h-1.4v3.8c-0.3,0.6-0.5,1.2-0.6,1.9
		c-0.3,1.4-0.5,2.5-0.6,3.5h-0.4v50.7h-2.2v-1.9h-3.8v1.9h-3.8l-8.7-7.8l-15,13.5v-6.7h-5.8l-3.7-5.3l-4.9,7.1l-3.8-2.7l-6.3,4.5
		l-6.5,0v2.4l-5.1,1.6l-4.7-69.6h-2.4c-0.8-15.8-1.6-31.7-2.4-47.5c-0.2-3.7-1.3-6.9-2.9-9.3l-1.5-11.5l-1.2,8.8
		c-0.3-0.2-0.6-0.3-0.9-0.5v-3.9c0-1.1-0.6-2-1.6-2.8l-2.9-39.8V94.6h-0.9l-2.6-36.2h-3.4l-2.9,36.2h-1.1v13.2l-3.2,38.8
		c-1.1,0.8-1.7,1.8-1.7,2.9v4.5c-0.2,0.1-0.5,0.3-0.7,0.4l-1.2-9.4l-1.6,12.2c-1.7,2.4-2.8,5.7-3,9.4c-0.8,15.6-1.6,31.1-2.3,46.7
		h-1.9l-1.1,27.7l-11.7-23.5h-41.1v-1.1h-2.5l-2-8h-0.8l-1.6-12.5l-1.7,12.5h-0.8l-2.2,8h-2.7v1.1h-5.5l-16.3,21.7l-3.5-14.2h0.4
		v-8.6h-2.5l-2-8h-0.8l-1.6-12.5l-1.7,12.5h-0.8l-2.2,8h-2.7v8.6h0.3l-6.1,22.1h0.4v34.4l-1-0.3l-1.5,3.8h-6.5V280h-10.7v5.1
		l-2.6-0.5v-8.8h-7.5V271h-5.4v4.8H436l-16-7.7l-11.6,5.6V130.4h-9.5v-6h3.2v-7.7h-9.3c-2.1-1.3-5-3.4-9-6.6
		c-8.5-6.8-13-16.4-13-16.4l0,23h0v155.7h-9.1v-4.5h-9.4v8.2h-3v9l-12.8-8.7l-3.2,2.5l-8-8.8l-8.7,9.4h-5.3v5.6h-4l-9.7-2.5V280
		h-7.6v4.6l-1.3,0.4l-0.5-0.3v-8.8h-5.3V271h-3.8v4.8H275l-11.3-7.7l-11.3,7.7h-10.7l0.3,8.6l-8.3-5.7l-8.3,6.4h-11.8l-0.8-0.7
		v-11.7h-5.5v2.6h-5.5l-12.4-10.4L177,275.3h-6.1v5.1l-2.9,2.5v-9h-8.3l-5.2-7.1l-7,9.4l-5.4-3.5l-9,6v-5.1h-5.5v4.2h-3.7l-5.6,3.5
		v-1.9l-5-3.6l-5.3,3.6h-5.3l-0.1-12.7l-4.4,0c-0.8-50.6-1.8-101.1-2.5-151.7c6.1-0.8,10.7-3.8,10.8-6.7c0.5,0,0.9-0.2,0.9-0.3v-2.7
		c0-0.2-0.5-0.3-1.2-0.3h-6.2v-1.4c1.8-0.5,2.8-1.6,2.7-2.9c-0.1-0.6-0.1-1.2-0.1-1.8h0.8c0.5,0,1-0.2,1-0.5v-4.2
		c0-0.3-0.4-0.5-1-0.5h-1c0-0.8,0-1.7,0-2.5h1c0.5,0,1-0.2,1-0.5v-4.1c0-0.3-0.4-0.5-1-0.5h-1.1c0-0.7-0.1-1.4-0.1-2.2h1.2
		c0.5,0,1-0.3,1-0.7v-5.6c0-0.4-0.4-0.7-1-0.7h-6.3v-6.5h-3.4v-1c2.3-0.4,4.1-2.3,4.1-4.8c0-2.4-1.8-4.4-4.1-4.8V26
		c0.9-0.3,1.5-1.2,1.5-2.2c0-1-0.6-1.9-1.5-2.2V3.5c0-1.9-0.1-3.5-0.1-3.5h-1.2c-0.1,0-0.1,1.6-0.1,3.5v18.1
		c-0.9,0.3-1.5,1.2-1.5,2.2c0,1,0.6,1.9,1.5,2.2V60c-2.3,0.4-4.1,2.3-4.1,4.8c0,2.4,1.8,4.4,4.1,4.8v1h-3.4v6.5h-6.3
		c-0.5,0-1,0.3-1,0.7v5.6c0,0.4,0.4,0.7,1,0.7h1.2c-0.1,0.7-0.1,1.5-0.1,2.2h-1.1c-0.5,0-1,0.2-1,0.5v4.1c0,0.3,0.4,0.5,1,0.5h1
		c0,0.8,0,1.6,0,2.5h-1c-0.5,0-1,0.2-1,0.5v4.2c0,0.3,0.4,0.5,1,0.5H83c0,0.5-0.1,1.1-0.1,1.6c-0.1,1.2,0.9,2.3,2.7,2.9v1.5h-6.2
		c-0.7,0-1.2,0.1-1.2,0.3v2.7c0,0.1,0.4,0.3,0.9,0.3c0.1,2.9,4.5,5.9,10.6,6.7c0,0.1,0,0.3,0,0.4c-0.7,50.3-1.6,100.6-2.3,150.9
		l-3.3,6.3l-1.9,1.4h-13v5.5l-17.3-14.5l-12.4,10.4h-3v-2.6h-7.7v2.6H16.4v9.8l-16.4,0l0,29.4h19.5h486.1h992.7V269H1490.1z
		 M939.4,283.8h-12v-15.2l0,0.2c0,0,0.1-5.8,5.5-6c3.9-0.2,5.1,2.4,5.5,4.4v2.2h-0.7v1.4h0.7v2.1h0.9V283.8z M941.9,283.8h-1V273h1
		V283.8z M957.1,283.8h-13.6V273h0.7v-2.1h0.8v-1.4h-0.8v-2.1c0.4-1.7,1.8-4.4,5.8-4.6c4.6-0.2,5.8,2.9,6.1,4.8v1.8h-0.7v1.4h0.7
		v2.1h0.9V283.8z M959.7,283.8h-1V273h1V283.8z M973.9,283.8h-12.6V273h0.7v-2.1h0.8v-1.4H962v-3c0.6-1.6,2.1-3.5,5.3-3.6
		c3.7-0.1,5.1,2,5.7,3.9v2.7h-0.7v1.4h0.7v2.1h0.9V283.8z M976.5,283.8h-1V273h1V283.8z M990.1,283.8h-12V273h0.7v-2.1h0.8v-1.4
		h-0.8v-3c0.6-1.6,2.1-3.5,5.3-3.7c4.4-0.2,5.6,2.9,5.9,4.9V283.8z M1019.3,283.8h-11.5v-17.2c0.7-1.7,2.3-3.7,6-3.8
		c2.9-0.1,4.6,0.9,5.5,2.2V283.8z M1034.5,283.8h-10.9v-17.6c0.7-1.5,2.2-3.2,5.3-3.3c3.3-0.1,4.8,1.4,5.5,3.1V283.8z M1050,283.8
		h-11.2v-18.6c0.9-1.2,2.4-2.3,4.9-2.4c4.9-0.2,6,3.2,6.3,5.2V283.8z M1077.7,283.8h-11v-18.8c0.8-1.2,2.3-2.2,4.9-2.1
		c3.3,0.1,4.7,2,5.3,3.7v3h-0.8v1.4h0.8v2.1h0.7V283.8z M1080.3,283.8h-1V273h1V283.8z M1094.5,283.8h-12.6V273h0.9v-2.1h0.7v-1.4
		h-0.7v-2.8c0.5-1.9,2-4,5.7-3.9c3.3,0.1,4.7,2,5.3,3.6v3h-0.8v1.4h0.8v2.1h0.7V283.8z M1097,283.8h-1V273h1V283.8z M1112.2,283.8
		h-13.6V273h0.9v-2.1h0.7v-1.4h-0.7v-1.8c0.3-2,1.6-5,6.1-4.8c4.1,0.2,5.4,2.8,5.8,4.6v2h-0.8v1.4h0.8v2.1h0.7V283.8z M1114.8,283.8
		h-1V273h1V283.8z M1128.3,283.8h-12V273h0.9v-2.1h0.7v-1.4h-0.7v-2.2c0.4-2,1.7-4.5,5.5-4.4c5.5,0.2,5.5,6,5.5,6l0-0.2V283.8z"/>
</g>
</svg>
